<?xml version="1.0" standalone="no"?><!DOCTYPE svg PUBLIC "-//W3C//DTD SVG 1.1//EN" "http://www.w3.org/Graphics/SVG/1.1/DTD/svg11.dtd"><svg t="1572693111423" class="icon" viewBox="0 0 1024 1024" version="1.1" xmlns="http://www.w3.org/2000/svg" p-id="9614" xmlns:xlink="http://www.w3.org/1999/xlink" width="200" height="200"><defs><style type="text/css"></style></defs><path d="M1013.33007 657.08L868.25007 512l145.06-145a36.48 36.48 0 0 0-51.59-51.58L816.66007 460.43 671.60007 315.37a36.25 36.25 0 0 0-25.8-10.7A36.49 36.49 0 0 0 620.00007 367l145 145-145 145.08a36.48 36.48 0 1 0 51.59 51.58l145.04-145.05 145.06 145.05a36.5 36.5 0 1 0 51.65-51.58zM511.68007 20.49a36.29 36.29 0 0 0-38.18 3.46L177.26007 246.07H36.46007A36.47 36.47 0 0 0 0.00007 282.56v458.9A36.47 36.47 0 0 0 36.46007 778H177.30007l296.21 222.11a36.51 36.51 0 0 0 21.84 7.31h0.06a36.25 36.25 0 0 0 25.8-10.68 36.72 36.72 0 0 0 10.68-25.8V53.13a36.3 36.3 0 0 0-20.21-32.64z m-52.8 105.61v771.84L211.34007 712.31a36.6 36.6 0 0 0-21.86-7.31H73.00007V319.06h116.5a36.62 36.62 0 0 0 21.86-7.3z" fill="#ffffff" p-id="9615"></path></svg>